<?xml version="1.0" standalone="no"?>
<!DOCTYPE svg PUBLIC "-//W3C//DTD SVG 20010904//EN"
 "http://www.w3.org/TR/2001/REC-SVG-20010904/DTD/svg10.dtd">
<svg version="1.0" xmlns="http://www.w3.org/2000/svg"
 width="1280.000000pt" height="325.000000pt" viewBox="0 0 1280.000000 325.000000"
 preserveAspectRatio="xMidYMid meet">
<metadata>
Created by potrace 1.15, written by Peter Selinger 2001-2017
</metadata>
<g transform="translate(0.000000,325.000000) scale(0.100000,-0.100000)"
fill="#000000" stroke="none">
<path d="M10225 3229 c-755 -57 -1659 -264 -2850 -653 -464 -151 -1399 -475
-1392 -483 2 -2 142 44 311 102 1469 502 2508 763 3336 839 460 42 915 23
1220 -51 l75 -18 -270 -6 c-148 -4 -342 -14 -430 -23 -904 -96 -1917 -360
-3478 -905 -287 -101 -337 -119 -325 -120 4 -1 87 26 185 59 1323 449 2311
696 3143 787 233 25 809 25 990 0 297 -42 530 -106 725 -201 169 -82 326 -201
381 -288 42 -67 67 -187 68 -328 1 -136 -13 -226 -52 -335 -240 -675 -1009
-1074 -2072 -1075 -1017 0 -2138 344 -3762 1156 -170 85 -308 152 -308 150 0
-4 220 -120 695 -366 212 -110 655 -322 907 -434 1148 -509 2071 -745 2928
-748 232 -1 233 -9 4 -27 -840 -65 -1826 149 -3008 654 -255 109 -456 201
-811 372 -176 84 -315 149 -310 144 16 -15 840 -431 1041 -525 970 -454 1742
-712 2479 -830 698 -112 1323 -79 1850 96 324 107 615 276 826 480 212 205
327 395 422 693 43 136 47 376 9 535 -35 143 -65 215 -148 350 -29 47 -71 121
-94 164 -74 141 -130 219 -234 321 -296 294 -725 460 -1331 515 -128 12 -560
11 -720 -1z"/>
<path d="M1960 3163 c-269 -20 -577 -101 -817 -213 -427 -201 -796 -545 -983
-920 -97 -192 -140 -357 -140 -530 0 -163 40 -283 138 -411 26 -35 66 -102 89
-149 50 -105 105 -175 186 -236 126 -95 285 -157 497 -196 156 -29 579 -31
805 -5 640 76 1405 272 2485 636 344 116 842 290 848 296 10 9 -6 5 -184 -56
-1055 -361 -1907 -593 -2529 -688 -411 -63 -810 -69 -1080 -15 -89 18 -232 61
-239 72 -2 4 71 8 162 9 523 7 1186 137 2106 414 375 113 1764 584 1753 595
-1 2 -196 -62 -432 -141 -1254 -420 -2055 -624 -2708 -690 -189 -19 -533 -19
-680 0 -63 8 -159 26 -213 40 -115 30 -302 118 -355 167 -33 31 -38 41 -45
103 -49 452 388 1040 966 1300 195 88 418 149 653 180 155 20 480 20 657 0
566 -65 1226 -293 2129 -736 156 -77 285 -138 287 -136 5 4 -513 268 -776 396
-734 355 -1272 538 -1825 618 -172 25 -596 25 -753 0 -415 -66 -747 -206
-1070 -449 -97 -73 -101 -75 -66 -33 39 48 145 145 233 214 274 213 607 344
1026 403 136 19 530 16 690 -6 616 -84 1231 -305 2260 -814 138 -68 246 -119
240 -114 -16 15 -598 315 -840 433 -839 407 -1457 608 -2025 659 -107 9 -345
11 -450 3z"/>
<path d="M6345 1890 c-13 -6 -15 -9 -5 -9 8 0 22 4 30 9 18 12 2 12 -25 0z"/>
<path d="M6290 1870 c-8 -5 -10 -10 -5 -10 6 0 17 5 25 10 8 5 11 10 5 10 -5
0 -17 -5 -25 -10z"/>
<path d="M5330 1846 c0 -3 14 -12 30 -21 17 -9 30 -13 30 -11 0 3 -13 12 -30
21 -16 9 -30 13 -30 11z"/>
</g>
</svg>
