<svg height="512pt" viewBox="0 -127 512 512" width="512pt" xmlns="http://www.w3.org/2000/svg"><path d="m351.648438 82.269531c17.960937-11.121093 39.699218-11.625 58.148437-1.347656 17.945313 9.996094 28.660156 28.085937 28.660156 48.398437 0 20.308594-10.714843 38.402344-28.660156 48.398438-18.453125 10.277344-40.191406 9.773438-58.148437-1.347656-26.976563-16.703125-50.59375-39.371094-68.292969-65.546875-22.878907-33.835938-53.382813-63.121094-88.214844-84.691407-.003906-.003906-.011719-.007812-.019531-.011718-19.488282-12.070313-41.691406-18.507813-64.207032-18.617188-21.164062-.132812-42.191406 5.332032-60.84375 15.71875-39.179687 21.820313-62.570312 61.484375-62.570312 106.097656 0 44.613282 23.390625 84.277344 62.570312 106.097657 18.476563 10.289062 39.296876 15.722656 60.253907 15.722656.199219 0 .394531-.003906.589843-.003906 22.515626-.109375 44.71875-6.546875 64.207032-18.617188l.039062-.023437c22.359375-13.851563 42.917969-30.894532 60.839844-50.265625-9.988281-10.796875-19.167969-22.308594-27.355469-34.414063-4.320312-6.386718-8.996093-12.5625-13.984375-18.496094-15.449218 18.382813-33.917968 34.421876-54.308594 47.050782-.003906 0-.003906.003906-.003906.003906s.003906-.003906.003906-.003906c-17.957031 11.121094-39.695312 11.625-58.148437 1.347656-17.945313-9.996094-28.660156-28.089844-28.660156-48.398438 0-20.3125 10.714843-38.40625 28.660156-48.402343 18.453125-10.277344 40.191406-9.773438 58.148437 1.347656 0 .003906.003907.003906.003907.003906 26.976562 16.707031 50.589843 39.371094 68.289062 65.546875 22.871094 33.820313 53.363281 63.097656 88.179688 84.667969.019531.011719.035156.023437.054687.035156 19.492188 12.070313 41.695313 18.507813 64.207032 18.617188.195312 0 .390624.003906.589843.003906 20.953125-.003906 41.777344-5.433594 60.253907-15.722656 39.179687-21.820313 62.570312-61.484375 62.570312-106.097657 0-44.613281-23.390625-84.277343-62.570312-106.097656-18.648438-10.386718-39.644532-15.8125-60.84375-15.71875-22.515626.109375-44.71875 6.546875-64.207032 18.617188.011719-.007813.027344-.015625.039063-.023438-.011719.007813-.027344.011719-.039063.023438-22.375 13.855468-42.949218 30.90625-60.878906 50.289062 9.988281 10.796875 19.167969 22.308594 27.355469 34.414063 4.320312 6.386719 8.996093 12.5625 13.984375 18.5 15.449218-18.386719 33.914062-34.425781 54.308594-47.054688zm0 0" fill="#ff98c9"/><path d="m214.660156 129.320312c4.988282 5.933594 9.664063 12.109376 13.984375 18.496094 8.1875 12.109375 17.367188 23.621094 27.355469 34.417969-6.996094 7.5625-14.398438 14.765625-22.152344 21.566406-10.414062-11.710937-21.835937-27.023437-30.054687-39.175781-3.097657-4.585938-6.484375-9.113281-10.0625-13.519531 7.449219-6.800781 14.457031-14.082031 20.929687-21.785157zm0 0" fill="#eb6da8"/><path d="m256.015625 76.390625v.003906c9.988281 10.796875 19.152344 22.320313 27.339844 34.429688 1.398437 2.066406 2.84375 4.101562 4.316406 6.125-.328125-.453125-.667969-.898438-.992187-1.351563 1.039062 1.453125 2.097656 2.886719 3.171874 4.3125.085938.113282.167969.226563.25.339844 2.324219 3.066406 4.726563 6.082031 7.210938 9.035156.007812.011719.015625.023438.027344.035156 6.46875-7.699218 13.476562-14.980468 20.925781-21.78125-3.5625-4.378906-6.941406-8.910156-10.0625-13.523437-8.757813-12.953125-19.753906-27.003906-30.53125-38.757813-7.570313 6.671876-14.808594 13.730469-21.65625 21.132813zm0 0" fill="#eb6da8"/><path d="m464.050781 220.097656c1.464844 1.46875 3.386719 2.203125 5.308594 2.203125 1.917969 0 3.835937-.730469 5.296875-2.191406 24.082031-24.015625 37.34375-56.257813 37.34375-90.789063 0-47.375-24.828125-89.484374-66.421875-112.648437-19.75-11.003906-42.078125-16.7382812-64.527344-16.66796875-23.875.11718775-47.402343 6.92578175-68.054687 19.69921875-.023438.015625-.042969.027344-.066406.039063-20.636719 12.78125-39.753907 28.152343-56.917969 45.761718-17.027344-17.460937-36.203125-32.90625-56.851563-45.707031-.03125-.015625-.058594-.035156-.089844-.054687-20.664062-12.796876-44.222656-19.625-68.105468-19.73828175-22.429688-.13671825-44.710938 5.62109375-64.542969 16.66796875-3.617187 2.015625-4.917969 6.582031-2.902344 10.199219 2.015625 3.621094 6.582031 4.921875 10.203125 2.902344 17.574219-9.785157 37.378906-14.886719 57.15625-14.769532 21.097656.101563 41.917969 6.132813 60.230469 17.453125.027344.015625.054687.035157.082031.050781 21.640625 13.402344 41.5625 29.859376 58.941406 48.570313.113282.144531.234376.285156.363282.421875 9.6875 10.46875 18.550781 21.601562 26.351562 33.089844.007813.011718.019532.027344.027344.039062.003906.007813.007812.011719.011719.015625.085937.125.171875.253907.257812.378907 18.289063 27.050781 42.6875 50.46875 70.554688 67.726562 20.308593 12.574219 44.886719 13.140625 65.746093 1.523438 20.359376-11.339844 32.511719-31.882813 32.511719-54.953126 0-23.070312-12.152343-43.613281-32.511719-54.953124-20.863281-11.617188-45.4375-11.046876-65.746093 1.523437-18.554688 11.492187-35.382813 25.519531-50.132813 41.769531-2.804687-3.625-5.480468-7.316406-7.996094-11.039062-.089843-.132813-.179687-.261719-.269531-.394532-.003906-.007812-.011719-.019531-.019531-.027343-.003906-.007813-.011719-.019531-.015625-.027344-7.015625-10.332031-14.722656-20.246094-23.035156-29.660156 16.410156-16.921875 34.707031-31.679688 54.503906-43.960938.035156-.015625.066406-.039062.097656-.054687.019531-.015625.039063-.027344.058594-.039063h.003906c.007813-.003906.015625-.007812.019531-.015625.015626-.007812.03125-.019531.050782-.027344 18.28125-11.289062 39.078125-17.308593 60.152344-17.410156.164062-.003906.324218-.003906.488281-.003906 19.726562 0 39.3125 5.105469 56.675781 14.773438 36.769531 20.480468 58.71875 57.691406 58.71875 99.546874 0 30.515626-11.695312 58.988282-32.9375 80.167969-2.929688 2.925781-2.9375 7.675781-.011719 10.609375zm-108.453125-131.453125c15.613282-9.667969 34.507813-10.105469 50.546875-1.171875 15.539063 8.652344 24.8125 24.296875 24.8125 41.847656 0 17.550782-9.273437 33.195313-24.8125 41.847657-16.039062 8.933593-34.933593 8.496093-50.546875-1.171875-17.917968-11.09375-34.296875-24.90625-48.347656-40.671875 14.144531-15.890625 30.382812-29.554688 48.347656-40.679688zm0 0"/><path d="m66.421875 241.96875c19.582031 10.90625 41.679687 16.671875 63.902344 16.671875l.628906-.003906c23.898437-.117188 47.453125-6.941407 68.117187-19.738281.027344-.019532.066407-.042969.101563-.0625 20.601563-12.769532 39.679687-28.121094 56.816406-45.699219 17.023438 17.453125 36.175781 32.886719 56.792969 45.667969.050781.03125.105469.066406.148438.09375 20.667968 12.796874 44.222656 19.621093 68.128906 19.738281l.617187.003906c22.226563 0 44.324219-5.765625 63.902344-16.671875 3.621094-2.011719 4.921875-6.582031 2.90625-10.199219-2.015625-3.621093-6.582031-4.917969-10.203125-2.902343-17.351562 9.664062-36.929688 14.773437-56.605469 14.773437l-.554687-.003906c-21.113282-.101563-41.949219-6.140625-60.195313-17.429688-.054687-.035156-.105469-.070312-.152343-.097656-21.625-13.398437-41.535157-29.847656-58.902344-48.546875-.117188-.144531-.238282-.285156-.363282-.421875-9.710937-10.496094-18.597656-21.65625-26.410156-33.171875-.003906-.007812-.011718-.019531-.019531-.027344-.011719-.015625-.019531-.03125-.03125-.046875-.019531-.027343-.035156-.054687-.054687-.082031-.003907-.003906-.007813-.007812-.011719-.011719-.015625-.027343-.035157-.054687-.050781-.078125-.003907-.003906-.007813-.011718-.011719-.015625-.019531-.03125-.039063-.058593-.058594-.089843-.019531-.023438-.035156-.050782-.054687-.078126-18.28125-27.007812-42.660157-50.402343-70.5-67.644531-.019532-.011719-.042969-.023437-.0625-.039062-20.292969-12.539063-44.84375-13.097657-65.6875-1.484375-20.355469 11.335937-32.511719 31.878906-32.511719 54.949218 0 23.070313 12.152343 43.613282 32.511719 54.953126 20.859374 11.617187 45.425781 11.050781 65.722656-1.511719.027344-.015625.050781-.03125.074218-.046875 18.539063-11.484375 35.351563-25.5 50.082032-41.734375 2.660156 3.433593 5.199218 6.929687 7.601562 10.449219.132813.199218.265625.394531.398438.589843 7.09375 10.492188 14.90625 20.558594 23.335937 30.109375-16.433593 16.949219-34.761719 31.726563-54.558593 43.992188-.027344.015625-.0625.039062-.097657.0625-18.300781 11.316406-39.125 17.351562-60.234375 17.453125l-.550781.003906c-19.679687 0-39.253906-5.109375-56.605469-14.773437-36.773437-20.480469-58.722656-57.691407-58.722656-99.546876 0-31.4375 12.324219-60.519531 34.699219-81.890624 2.996093-2.863282 3.105469-7.609376.246093-10.605469-2.863281-2.996094-7.609374-3.105469-10.605468-.242188-25.367188 24.226563-39.339844 57.164063-39.339844 92.738281 0 47.375 24.828125 89.484376 66.421875 112.648438zm89.980469-71.972656c-.015625.007812-.03125.019531-.046875.027344-15.601563 9.640624-34.476563 10.070312-50.5 1.144531-15.535157-8.652344-24.8125-24.296875-24.8125-41.847657 0-17.550781 9.273437-33.195312 24.8125-41.847656 7.671875-4.273437 16-6.402344 24.304687-6.402344 9.0625 0 18.101563 2.53125 26.242188 7.574219.019531.011719.039062.023438.058594.035157 17.894531 11.085937 34.257812 24.890624 48.289062 40.636718-14.144531 15.890625-30.382812 29.554688-48.347656 40.679688zm0 0"/></svg>